<svg width="137" height="131" viewBox="0 0 137 131" fill="none" xmlns="http://www.w3.org/2000/svg">
<rect y="16.7109" width="88.4089" height="54.665" rx="10.798" fill="#BAEDE5"/>
<path d="M24.9705 86.8975L11.5279 63.6142L38.4131 63.6142L24.9705 86.8975Z" fill="#BAEDE5"/>
<path d="M83 60.292L92.4946 30.292H99.4653L109 60.292H102.79L100.707 52.5893H91.0924L89.0092 60.292H83ZM92.3744 47.9271H99.4253L98.5439 44.6433C98.17 43.3731 97.6358 41.4001 96.9414 38.7244C96.5141 36.9947 96.1803 35.6974 95.9399 34.8325H95.7797C95.0318 38.0758 94.1905 41.346 93.2558 44.6433L92.3744 47.9271Z" fill="#A4A4A4"/>
<path d="M21.9704 30C18.2464 30 15.1855 28.724 12.7878 26.1719C10.2626 23.4635 9 19.7786 9 15.1172C9 10.5078 10.3009 6.79687 12.9026 3.98437C15.3513 1.32812 18.4377 0 22.1617 0C25.3757 0 28.1432 1.23698 30.4643 3.71094L27.48 7.38281C25.8475 5.76823 24.113 4.96094 22.2765 4.96094C20.0829 4.96094 18.2974 5.84635 16.92 7.61719C15.4916 9.4401 14.7774 11.875 14.7774 14.9219C14.7774 18.0469 15.4406 20.5078 16.767 22.3047C18.1188 24.1016 19.9171 25 22.1617 25C24.3299 25 26.2812 24.0495 28.0157 22.1484L31 25.7422C28.6023 28.5807 25.5925 30 21.9704 30Z" fill="#A4A4A4"/>
<path d="M14.1725 34.2578H71.8745" stroke="white" stroke-width="6.07389"/>
<path d="M14.1725 51.1289H71.8745" stroke="white" stroke-width="6.07389"/>
<rect width="88.4089" height="54.665" rx="10.798" transform="matrix(-1 0 0 1 137 59.9014)" fill="#B9CAFF"/>
<path d="M112.029 130.089L125.472 106.806L98.5869 106.806L112.029 130.089Z" fill="#B9CAFF"/>
<path d="M64.1132 77.4492H121.815" stroke="white" stroke-width="6.07389"/>
<path d="M64.1132 91.6211H121.815" stroke="white" stroke-width="6.07389"/>
<path d="M38 113.292V84.292H47.3376C54.147 84.292 57.5517 86.6695 57.5517 91.4244C57.5517 92.8091 57.2087 94.0762 56.5227 95.2258C55.8113 96.4537 54.8711 97.2767 53.7024 97.6947V97.8906C55.3031 98.2825 56.5735 99.0271 57.5136 100.124C58.5045 101.326 59 102.868 59 104.749C59 107.544 57.9583 109.7 55.8748 111.215C53.9437 112.6 51.3394 113.292 48.0617 113.292H38ZM43.6407 108.824H47.5662C51.5299 108.824 53.5118 107.348 53.5118 104.396C53.5118 101.731 51.5299 100.399 47.5662 100.399H43.6407V108.824ZM43.6407 96.0879H46.9183C50.3485 96.0879 52.0635 94.8208 52.0635 92.2866C52.0635 91.0325 51.6443 90.1181 50.8058 89.5433C49.9927 88.9947 48.7223 88.7204 46.9946 88.7204H43.6407V96.0879Z" fill="#A4A4A4"/>
</svg>
