<svg width="196" height="240" viewBox="0 0 196 240" fill="none" xmlns="http://www.w3.org/2000/svg">
<rect x="38.4698" y="2.46836" width="59.2089" height="6.19231" fill="#BFBFBF" stroke="#BFBFBF" stroke-width="0.43477"/>
<rect x="158.359" y="2.46836" width="15.8317" height="6.19231" fill="#BFBFBF" stroke="#BFBFBF" stroke-width="0.43477"/>
<rect x="38.4698" y="27.1715" width="135.722" height="3.18" fill="#BFBFBF" stroke="#BFBFBF" stroke-width="0.43477"/>
<rect x="38.4698" y="33.7984" width="92.3384" height="2.57754" fill="#BFBFBF" stroke="#BFBFBF" stroke-width="0.43477"/>
<rect x="38.4698" y="42.8346" width="13.5813" height="6.19231" fill="#BFBFBF" stroke="#BFBFBF" stroke-width="0.43477"/>
<rect x="57.1573" y="42.8355" width="13.5813" height="6.19231" fill="#BFBFBF" stroke="#BFBFBF" stroke-width="0.43477"/>
<rect x="75.8458" y="42.8346" width="13.5813" height="6.19231" fill="#BFBFBF" stroke="#BFBFBF" stroke-width="0.43477"/>
<rect x="94.5338" y="42.8346" width="13.5813" height="6.19231" fill="#BFBFBF" stroke="#BFBFBF" stroke-width="0.43477"/>
<rect x="38.4698" y="62.7164" width="135.722" height="3.18" fill="#BFBFBF" stroke="#BFBFBF" stroke-width="0.43477"/>
<rect x="38.4698" y="69.3434" width="92.3384" height="2.57754" fill="#BFBFBF" stroke="#BFBFBF" stroke-width="0.43477"/>
<rect x="38.4698" y="78.3775" width="13.5813" height="6.19231" fill="#BFBFBF" stroke="#BFBFBF" stroke-width="0.43477"/>
<rect x="57.1573" y="78.3775" width="13.5813" height="6.19231" fill="#BFBFBF" stroke="#BFBFBF" stroke-width="0.43477"/>
<rect x="75.8463" y="78.3775" width="13.5813" height="6.19231" fill="#BFBFBF" stroke="#BFBFBF" stroke-width="0.43477"/>
<rect x="94.5343" y="78.3795" width="13.5813" height="6.19231" fill="#BFBFBF" stroke="#BFBFBF" stroke-width="0.43477"/>
<rect x="38.4703" y="98.2574" width="135.722" height="3.18" fill="#BFBFBF" stroke="#BFBFBF" stroke-width="0.43477"/>
<rect x="38.4703" y="104.883" width="92.3384" height="2.57754" fill="#BFBFBF" stroke="#BFBFBF" stroke-width="0.43477"/>
<rect x="38.4703" y="113.921" width="13.5813" height="6.19231" fill="#BFBFBF" stroke="#BFBFBF" stroke-width="0.43477"/>
<rect x="57.1588" y="113.921" width="13.5813" height="6.19231" fill="#BFBFBF" stroke="#BFBFBF" stroke-width="0.43477"/>
<rect x="75.8463" y="113.921" width="13.5813" height="6.19231" fill="#BFBFBF" stroke="#BFBFBF" stroke-width="0.43477"/>
<rect x="94.5348" y="113.921" width="13.5813" height="6.19231" fill="#BFBFBF" stroke="#BFBFBF" stroke-width="0.43477"/>
<rect x="38.4698" y="133.805" width="135.722" height="3.18" fill="#BFBFBF" stroke="#BFBFBF" stroke-width="0.43477"/>
<rect x="38.4698" y="140.431" width="92.3384" height="2.57754" fill="#BFBFBF" stroke="#BFBFBF" stroke-width="0.43477"/>
<rect x="38.4698" y="149.469" width="13.5813" height="6.19231" fill="#BFBFBF" stroke="#BFBFBF" stroke-width="0.43477"/>
<rect x="57.1573" y="149.47" width="13.5813" height="6.19231" fill="#BFBFBF" stroke="#BFBFBF" stroke-width="0.43477"/>
<rect x="75.8458" y="149.469" width="13.5813" height="6.19231" fill="#BFBFBF" stroke="#BFBFBF" stroke-width="0.43477"/>
<rect x="94.5338" y="149.469" width="13.5813" height="6.19231" fill="#BFBFBF" stroke="#BFBFBF" stroke-width="0.43477"/>
<rect x="38.4698" y="165.131" width="135.722" height="3.18" fill="#BFBFBF" stroke="#BFBFBF" stroke-width="0.43477"/>
<rect x="38.4698" y="171.758" width="92.3384" height="2.57754" fill="#BFBFBF" stroke="#BFBFBF" stroke-width="0.43477"/>
<rect x="38.4698" y="180.795" width="13.5813" height="6.19231" fill="#BFBFBF" stroke="#BFBFBF" stroke-width="0.43477"/>
<rect x="57.1573" y="180.795" width="13.5813" height="6.19231" fill="#BFBFBF" stroke="#BFBFBF" stroke-width="0.43477"/>
<rect x="75.8458" y="180.795" width="13.5813" height="6.19231" fill="#BFBFBF" stroke="#BFBFBF" stroke-width="0.43477"/>
<rect x="94.5338" y="180.796" width="13.5813" height="6.19231" fill="#BFBFBF" stroke="#BFBFBF" stroke-width="0.43477"/>
<rect x="28.5744" y="0.252669" width="166.272" height="206.488" fill="#EEEEFF" stroke="#CDCDFF" stroke-width="0.505338"/>
<rect x="45.134" y="14.5544" width="58.0442" height="6.00016" fill="#CDCDFF" stroke="#CDCDFF" stroke-width="0.505338"/>
<rect x="45.133" y="38.8015" width="133.153" height="3.04312" fill="#CDCDFF" stroke="#CDCDFF" stroke-width="0.505338"/>
<rect x="45.133" y="45.3064" width="90.5659" height="2.45171" fill="#CDCDFF" stroke="#CDCDFF" stroke-width="0.505338"/>
<rect x="45.133" y="54.1775" width="13.2536" height="6.00016" fill="#CDCDFF" stroke="#CDCDFF" stroke-width="0.505338"/>
<rect x="63.4783" y="54.1775" width="13.2536" height="6.00016" fill="#CDCDFF" stroke="#CDCDFF" stroke-width="0.505338"/>
<rect x="81.8244" y="54.1775" width="13.2536" height="6.00016" fill="#CDCDFF" stroke="#CDCDFF" stroke-width="0.505338"/>
<rect x="100.169" y="54.1785" width="13.2536" height="6.00016" fill="#CDCDFF" stroke="#CDCDFF" stroke-width="0.505338"/>
<rect x="45.134" y="73.6951" width="133.153" height="3.04312" fill="#CDCDFF" stroke="#CDCDFF" stroke-width="0.505338"/>
<rect x="45.134" y="80.2009" width="90.5659" height="2.45171" fill="#CDCDFF" stroke="#CDCDFF" stroke-width="0.505338"/>
<rect x="45.1345" y="89.071" width="13.2536" height="6.00016" fill="#CDCDFF" stroke="#CDCDFF" stroke-width="0.505338"/>
<rect x="63.4797" y="89.072" width="13.2536" height="6.00016" fill="#CDCDFF" stroke="#CDCDFF" stroke-width="0.505338"/>
<rect x="81.8249" y="89.072" width="13.2536" height="6.00016" fill="#CDCDFF" stroke="#CDCDFF" stroke-width="0.505338"/>
<rect x="100.17" y="89.072" width="13.2536" height="6.00016" fill="#CDCDFF" stroke="#CDCDFF" stroke-width="0.505338"/>
<rect x="45.134" y="108.589" width="133.153" height="3.04312" fill="#CDCDFF" stroke="#CDCDFF" stroke-width="0.505338"/>
<rect x="45.134" y="115.094" width="90.5659" height="2.45171" fill="#CDCDFF" stroke="#CDCDFF" stroke-width="0.505338"/>
<rect x="45.134" y="123.965" width="13.2536" height="6.00016" fill="#CDCDFF" stroke="#CDCDFF" stroke-width="0.505338"/>
<rect x="63.4792" y="123.966" width="13.2536" height="6.00016" fill="#CDCDFF" stroke="#CDCDFF" stroke-width="0.505338"/>
<rect x="81.8244" y="123.966" width="13.2536" height="6.00016" fill="#CDCDFF" stroke="#CDCDFF" stroke-width="0.505338"/>
<rect x="100.169" y="123.966" width="13.2536" height="6.00016" fill="#CDCDFF" stroke="#CDCDFF" stroke-width="0.505338"/>
<rect x="45.133" y="143.48" width="133.153" height="3.04312" fill="#CDCDFF" stroke="#CDCDFF" stroke-width="0.505338"/>
<rect x="45.133" y="149.986" width="90.5659" height="2.45171" fill="#CDCDFF" stroke="#CDCDFF" stroke-width="0.505338"/>
<rect x="45.133" y="158.856" width="13.2536" height="6.00016" fill="#CDCDFF" stroke="#CDCDFF" stroke-width="0.505338"/>
<rect x="63.4783" y="158.857" width="13.2536" height="6.00016" fill="#CDCDFF" stroke="#CDCDFF" stroke-width="0.505338"/>
<rect x="81.8244" y="158.857" width="13.2536" height="6.00016" fill="#CDCDFF" stroke="#CDCDFF" stroke-width="0.505338"/>
<rect x="100.169" y="158.857" width="13.2536" height="6.00016" fill="#CDCDFF" stroke="#CDCDFF" stroke-width="0.505338"/>
<rect x="45.134" y="174.234" width="133.153" height="3.04312" fill="#CDCDFF" stroke="#CDCDFF" stroke-width="0.505338"/>
<rect x="45.134" y="180.739" width="90.5659" height="2.45171" fill="#CDCDFF" stroke="#CDCDFF" stroke-width="0.505338"/>
<rect x="45.134" y="189.61" width="13.2536" height="6.00016" fill="#CDCDFF" stroke="#CDCDFF" stroke-width="0.505338"/>
<rect x="63.4792" y="189.61" width="13.2536" height="6.00016" fill="#CDCDFF" stroke="#CDCDFF" stroke-width="0.505338"/>
<rect x="81.8244" y="189.61" width="13.2536" height="6.00016" fill="#CDCDFF" stroke="#CDCDFF" stroke-width="0.505338"/>
<rect x="100.169" y="189.61" width="13.2536" height="6.00016" fill="#CDCDFF" stroke="#CDCDFF" stroke-width="0.505338"/>
<rect x="11.9601" y="29.2174" width="169.459" height="210.427" fill="#FBFBFB" stroke="#CCCCCC" stroke-width="0.43477"/>
<rect x="28.8292" y="37.7877" width="59.2089" height="6.19231" fill="#CCCCCC" stroke="#CCCCCC" stroke-width="0.43477"/>
<rect x="148.718" y="37.7877" width="15.8317" height="6.19231" fill="#CCCCCC" stroke="#CCCCCC" stroke-width="0.43477"/>
<rect x="28.8287" y="62.4908" width="135.722" height="3.18" fill="#CCCCCC" stroke="#CCCCCC" stroke-width="0.43477"/>
<rect x="28.8287" y="69.1168" width="92.3384" height="2.57754" fill="#CCCCCC" stroke="#CCCCCC" stroke-width="0.43477"/>
<rect x="28.8287" y="78.152" width="13.5813" height="6.19231" fill="#CCCCCC" stroke="#CCCCCC" stroke-width="0.43477"/>
<rect x="47.5162" y="78.1539" width="13.5813" height="6.19231" fill="#CCCCCC" stroke="#CCCCCC" stroke-width="0.43477"/>
<rect x="66.2052" y="78.1529" width="13.5813" height="6.19231" fill="#CCCCCC" stroke="#CCCCCC" stroke-width="0.43477"/>
<rect x="84.8927" y="78.1539" width="13.5813" height="6.19231" fill="#CCCCCC" stroke="#CCCCCC" stroke-width="0.43477"/>
<rect x="28.8287" y="98.0348" width="135.722" height="3.18" fill="#CCCCCC" stroke="#CCCCCC" stroke-width="0.43477"/>
<rect x="28.8287" y="104.662" width="92.3384" height="2.57754" fill="#CCCCCC" stroke="#CCCCCC" stroke-width="0.43477"/>
<rect x="28.8287" y="113.699" width="13.5813" height="6.19231" fill="#CCCCCC" stroke="#CCCCCC" stroke-width="0.43477"/>
<rect x="47.5162" y="113.699" width="13.5813" height="6.19231" fill="#CCCCCC" stroke="#CCCCCC" stroke-width="0.43477"/>
<rect x="66.2052" y="113.699" width="13.5813" height="6.19231" fill="#CCCCCC" stroke="#CCCCCC" stroke-width="0.43477"/>
<rect x="84.8927" y="113.698" width="13.5813" height="6.19231" fill="#CCCCCC" stroke="#CCCCCC" stroke-width="0.43477"/>
<rect x="28.8297" y="133.579" width="135.722" height="3.18" fill="#CCCCCC" stroke="#CCCCCC" stroke-width="0.43477"/>
<rect x="28.8292" y="140.205" width="92.3384" height="2.57754" fill="#CCCCCC" stroke="#CCCCCC" stroke-width="0.43477"/>
<rect x="28.8292" y="149.241" width="13.5813" height="6.19231" fill="#CCCCCC" stroke="#CCCCCC" stroke-width="0.43477"/>
<rect x="47.5162" y="149.242" width="13.5813" height="6.19231" fill="#CCCCCC" stroke="#CCCCCC" stroke-width="0.43477"/>
<rect x="66.2052" y="149.241" width="13.5813" height="6.19231" fill="#CCCCCC" stroke="#CCCCCC" stroke-width="0.43477"/>
<rect x="84.8927" y="149.242" width="13.5813" height="6.19231" fill="#CCCCCC" stroke="#CCCCCC" stroke-width="0.43477"/>
<rect x="28.8292" y="169.125" width="135.722" height="3.18" fill="#CCCCCC" stroke="#CCCCCC" stroke-width="0.43477"/>
<rect x="28.8292" y="175.752" width="92.3384" height="2.57754" fill="#CCCCCC" stroke="#CCCCCC" stroke-width="0.43477"/>
<rect x="28.8292" y="184.789" width="13.5813" height="6.19231" fill="#CCCCCC" stroke="#CCCCCC" stroke-width="0.43477"/>
<rect x="47.5162" y="184.79" width="13.5813" height="6.19231" fill="#CCCCCC" stroke="#CCCCCC" stroke-width="0.43477"/>
<rect x="66.2052" y="184.789" width="13.5813" height="6.19231" fill="#CCCCCC" stroke="#CCCCCC" stroke-width="0.43477"/>
<rect x="84.8927" y="184.789" width="13.5813" height="6.19231" fill="#CCCCCC" stroke="#CCCCCC" stroke-width="0.43477"/>
<rect x="28.8287" y="200.452" width="135.722" height="3.18" fill="#CCCCCC" stroke="#CCCCCC" stroke-width="0.43477"/>
<rect x="28.8287" y="207.08" width="92.3384" height="2.57754" fill="#CCCCCC" stroke="#CCCCCC" stroke-width="0.43477"/>
<rect x="28.8287" y="216.116" width="13.5813" height="6.19231" fill="#CCCCCC" stroke="#CCCCCC" stroke-width="0.43477"/>
<rect x="47.5162" y="216.116" width="13.5813" height="6.19231" fill="#CCCCCC" stroke="#CCCCCC" stroke-width="0.43477"/>
<rect x="66.2047" y="216.116" width="13.5813" height="6.19231" fill="#CCCCCC" stroke="#CCCCCC" stroke-width="0.43477"/>
<rect x="84.8927" y="216.116" width="13.5813" height="6.19231" fill="#CCCCCC" stroke="#CCCCCC" stroke-width="0.43477"/>
<rect x="8.09135" y="21.588" width="112.48" height="196.583" transform="rotate(0.143865 8.09135 21.588)" fill="white" stroke="#D7D7D7" stroke-width="0.43477"/>
<rect x="27.7159" y="51.7238" width="89.7321" height="9.81411" transform="rotate(0.143865 27.7159 51.7238)" fill="#D7D7D7" stroke="#D7D7D7" stroke-width="0.43477"/>
<rect x="28.3096" y="75.8966" width="92.0881" height="5.15556" transform="rotate(0.143865 28.3096 75.8966)" fill="#D7D7D7" stroke="#D7D7D7" stroke-width="0.43477"/>
<rect x="28.2852" y="86.1447" width="69.8284" height="4.22384" transform="rotate(0.143865 28.2852 86.1447)" fill="#D7D7D7" stroke="#D7D7D7" stroke-width="0.43477"/>
<rect x="28.2515" y="100.122" width="21.2409" height="9.8139" transform="rotate(0.143865 28.2515 100.122)" fill="#D7D7D7" stroke="#D7D7D7" stroke-width="0.43477"/>
<rect x="57.1519" y="100.195" width="21.2409" height="9.8139" transform="rotate(0.143865 57.1519 100.195)" fill="#D7D7D7" stroke="#D7D7D7" stroke-width="0.43477"/>
<rect x="86.0528" y="100.268" width="21.2409" height="9.8139" transform="rotate(0.143865 86.0528 100.268)" fill="#D7D7D7" stroke="#D7D7D7" stroke-width="0.43477"/>
<rect x="114.954" y="100.341" width="5.6991" height="9.8139" transform="rotate(0.143865 114.954 100.341)" fill="#D7D7D7" stroke="#D7D7D7" stroke-width="0.43477"/>
<rect x="28.1714" y="130.862" width="90.0132" height="5.15556" transform="rotate(0.143865 28.1714 130.862)" fill="#D7D7D7" stroke="#D7D7D7" stroke-width="0.43477"/>
<rect x="28.146" y="141.112" width="61.194" height="4.22384" transform="rotate(0.143865 28.146 141.112)" fill="#D7D7D7" stroke="#D7D7D7" stroke-width="0.43477"/>
<rect x="28.1119" y="155.092" width="21.2409" height="9.8139" transform="rotate(0.143865 28.1119 155.092)" fill="#D7D7D7" stroke="#D7D7D7" stroke-width="0.43477"/>
<rect x="57.0142" y="155.165" width="21.2409" height="9.8139" transform="rotate(0.143865 57.0142 155.165)" fill="#D7D7D7" stroke="#D7D7D7" stroke-width="0.43477"/>
<rect x="85.9141" y="155.238" width="21.2409" height="9.8139" transform="rotate(0.143865 85.9141 155.238)" fill="#D7D7D7" stroke="#D7D7D7" stroke-width="0.43477"/>
<rect x="28.0342" y="185.839" width="85.7105" height="5.15556" transform="rotate(0.143865 28.0342 185.839)" fill="#D7D7D7" stroke="#D7D7D7" stroke-width="0.43477"/>
<rect x="28.0083" y="196.085" width="58.2622" height="4.22384" transform="rotate(0.143865 28.0083 196.085)" fill="#D7D7D7" stroke="#D7D7D7" stroke-width="0.43477"/>
<rect x="27.9742" y="210.061" width="18.0171" height="9.8139" transform="rotate(0.143865 27.9742 210.061)" fill="#D7D7D7" stroke="#D7D7D7" stroke-width="0.43477"/>
<rect x="52.5767" y="210.122" width="18.0171" height="9.8139" transform="rotate(0.143865 52.5767 210.122)" fill="#D7D7D7" stroke="#D7D7D7" stroke-width="0.43477"/>
<rect x="77.1822" y="210.186" width="18.0171" height="9.8139" transform="rotate(0.143865 77.1822 210.186)" fill="#D7D7D7" stroke="#D7D7D7" stroke-width="0.43477"/>
<rect x="101.784" y="210.247" width="18.0171" height="9.8139" transform="rotate(0.143865 101.784 210.247)" fill="#D7D7D7" stroke="#D7D7D7" stroke-width="0.43477"/>
<rect opacity="0.3" x="13.2656" y="25.5498" width="96.9951" height="149.372" rx="8.00131" fill="#EEEEFF"/>
<path d="M107.248 11C116.086 11 123.251 18.1649 123.251 27.0029V213.892C123.251 222.729 116.086 229.894 107.248 229.894H16.0029C7.16506 229.894 0.000223979 222.729 0 213.892V27.0029C0 18.1649 7.16492 11 16.0029 11H107.248ZM21.3691 26.1699C16.9501 26.1699 13.3672 29.7529 13.3672 34.1719V166.711C13.3674 171.13 16.9503 174.712 21.3691 174.712H102.169C106.588 174.712 110.17 171.13 110.17 166.711V34.1719C110.17 29.753 106.588 26.1701 102.169 26.1699H88.8584V30.8428C88.8581 34.2464 86.0989 37.0056 82.6953 37.0059H40.8398C37.4362 37.0057 34.677 34.2464 34.6768 30.8428V26.1699H21.3691Z" fill="#A9A9FF"/>
<circle cx="61.9713" cy="199.921" r="12.9215" fill="#EEEEFF"/>
<path d="M28.9054 207.094V194.762C28.9054 193.793 28.1126 193 27.1436 193H14.8115C13.8426 193 13.0498 193.793 13.0498 194.762V207.094C13.0498 208.063 13.8426 208.856 14.8115 208.856H27.1436C28.1126 208.856 28.9054 208.063 28.9054 207.094ZM18.2469 202.672L20.0967 204.9L22.8274 201.386C23.0036 201.157 23.3559 201.157 23.5321 201.395L26.6239 205.517C26.673 205.583 26.7029 205.66 26.7102 205.742C26.7176 205.823 26.7021 205.905 26.6655 205.978C26.6289 206.051 26.5727 206.113 26.5031 206.156C26.4336 206.199 26.3534 206.222 26.2716 206.222H15.71C15.3401 206.222 15.1375 205.799 15.3665 205.508L17.5598 202.69C17.7272 202.46 18.0619 202.452 18.2469 202.672Z" fill="#EEEEFF"/>
</svg>
