<svg width="594" height="708" viewBox="0 0 594 708" fill="none" xmlns="http://www.w3.org/2000/svg">
<g clip-path="url(#clip0_153_5708)">
<path d="M372.762 362.044C371.171 361.713 371.238 361.109 372.762 360.261C462.337 379.202 527.66 455.281 568.176 533.297C588.648 572.717 607.105 615.234 581.522 656.449C541.062 678.001 489.549 677.874 444.116 676.545C440.799 646.038 426.59 620.826 402.388 602.031C396.638 596.447 399.453 591.992 410.839 588.667C395.024 593.122 382.133 600.463 370.537 611.436C323.888 612.198 271.37 620.004 243.842 663.583L238.945 665.369C237.087 662.412 232.174 663.59 229.157 663.553C192.003 663.095 154.755 663.617 117.617 663.583C115.335 654.831 113.552 654.831 112.265 663.583C74.9422 663.459 36.9814 665.215 0.00396729 661.661C7.59987 554.534 56.7818 402.515 166.866 355.57" fill="#7878FF"/>
<path d="M173.644 379.307C179.979 423.929 189.627 467.951 202.586 511.368L220.27 484.423C243.47 458.017 250.631 470.916 285.755 492.142C304.151 503.262 310.933 496.21 323.689 513.245" fill="#E6A8F8"/>
<path d="M414.604 676.234C411.249 676.41 402.317 683.83 394.908 684.839C381.24 686.697 364.285 682.967 350.872 685.41C336.659 687.999 312.836 713.335 298.297 706.876C295.839 705.784 293.137 701.694 291.602 701.566C289.879 701.423 281.672 706.614 275.506 706.557C268.3 706.494 266.037 702.234 263.087 701.859C258.704 701.303 252.725 705.056 247.077 700.936C243.546 698.361 244.867 694.886 243.324 692.172C241.782 689.459 238.802 689.433 237.673 688.071C233.278 682.771 236.228 671.212 238.937 665.365C253.461 634.002 296.852 614.821 329.296 610.306C338.956 608.963 364.514 609.807 369.794 607.983" fill="#F4C7A4"/>
<path d="M409.845 672.143C408.741 674.054 394.462 679.075 391.343 679.488C378.703 681.165 363.128 676.741 352.707 678.234C334.734 680.805 317.962 703.63 297.831 701.045C294.045 697.419 309.203 682.937 312.074 680.512C316.543 676.741 335.361 666.698 336.243 665.426C337.883 663.065 338.412 659.406 334.407 659.995C327.919 660.948 313.05 671.547 307.69 676.125C294.945 687.016 289.676 703.293 269.279 699.258C263.181 693.344 297.163 664.063 302.601 660.333C305.379 658.426 322.451 652.557 317.44 647.536C311.252 641.332 276.068 674.793 271.103 680.58C264.003 688.855 264.295 700.136 249.678 695.663C251.498 672.56 273.344 657.128 290.81 644.942C294.349 642.473 297.629 643.64 297.828 639.501C298.094 633.901 291.091 637.587 288.292 638.885C269.215 647.742 254.707 668.09 243.399 684.986C238.749 679.323 243.812 670.965 246.916 665.309C263.988 634.19 305.758 617.805 339.688 615.343C348.256 614.72 369.681 614.033 376.252 618.169C386.141 624.391 416.622 660.4 409.848 672.151L409.845 672.143Z" fill="#FFD8B5"/>
<path d="M117.613 663.583C115.943 663.583 107.668 663.722 106.181 663.718C101.396 631.432 110.632 577.675 116.566 545.25C116.566 545.25 114.22 573.423 113.811 579.795C111.691 612.645 108.512 635.11 117.613 663.587V663.583Z" fill="#3D3DC1"/>
<path d="M408.437 258.148C459.527 258.148 500.943 218.839 500.943 170.348C500.943 121.858 459.527 82.5491 408.437 82.5491C357.348 82.5491 315.932 121.858 315.932 170.348C315.932 218.839 357.348 258.148 408.437 258.148Z" fill="#3F2B23"/>
<path d="M88.6852 369.084C126.329 369.084 156.846 340.119 156.846 304.388C156.846 268.657 126.329 239.691 88.6852 239.691C51.0412 239.691 20.5248 268.657 20.5248 304.388C20.5248 340.119 51.0412 369.084 88.6852 369.084Z" fill="#3F2B23"/>
<path d="M230.402 165.109C230.402 222.097 188.985 268.296 137.897 268.296C86.8085 268.296 29.6216 222.934 29.6216 165.946C29.6216 108.958 86.8085 61.9231 137.897 61.9231C188.985 61.9231 230.402 108.121 230.402 165.109Z" fill="#3F2B23"/>
<path d="M524.598 294.093C524.598 342.585 496.83 377.04 445.741 377.04C394.653 377.04 344.439 308.46 344.439 259.968C344.439 211.477 354.617 213.259 405.705 213.259C456.794 213.259 524.594 245.602 524.594 294.09L524.598 294.093Z" fill="#3F2B23"/>
<path d="M266.251 481.428C278.692 454.41 286.61 422.612 289.913 393.05C289.913 393.05 357.983 358.598 362.228 368.465C382.178 414.836 321.411 540.517 319.092 535.346C303.994 501.644 266.251 481.428 266.251 481.428Z" fill="white"/>
<path d="M267.065 481.987C236.835 475.4 212.036 500.267 191.301 521.599C178.605 465.489 163.672 415.631 170.356 365.128C192.998 381.067 217.193 394.803 242.48 406.076C246.957 408.073 251.614 410.092 254.921 413.717C258.925 418.108 260.359 424.192 261.65 429.99C264.926 444.716 265.485 466.42 267.065 481.983V481.987Z" fill="white"/>
<path d="M421.771 242.326C421.4 234.613 420.383 227.179 418.754 220.153C421.298 212.944 422.676 205.269 422.676 197.313C422.676 155.326 384.475 121.287 337.349 121.287C299.757 121.287 267.842 142.948 256.47 173.028C241.312 160.734 221.163 153.235 199.047 153.235C153.757 153.235 116.716 184.677 113.897 224.398C112.299 232.688 111.522 241.485 111.634 250.597C95.1815 253.408 74.8594 270.364 90.434 285.615C96.4912 291.549 107.3 298.653 121.666 302.624C128.92 321.692 139.518 337.961 151.926 350.139C165.155 384.888 211.154 410.527 265.871 410.527C320.589 410.527 364.104 386.246 378.677 352.924C394.037 338.963 406.913 318.851 414.592 294.889C429.24 290.952 440.254 283.739 446.39 277.727C463.065 261.394 438.588 243.114 421.771 242.326Z" fill="#FFD8B5"/>
<mask id="mask0_153_5708" style="mask-type:luminance" maskUnits="userSpaceOnUse" x="84" y="121" width="368" height="290">
<path d="M421.771 242.326C421.4 234.613 420.383 227.179 418.754 220.153C421.298 212.944 422.676 205.269 422.676 197.313C422.676 155.326 384.475 121.287 337.349 121.287C299.757 121.287 267.842 142.948 256.47 173.028C241.312 160.733 221.163 153.235 199.047 153.235C153.757 153.235 116.716 184.677 113.897 224.398C112.299 232.688 111.522 241.485 111.634 250.597C95.1815 253.408 74.8594 270.364 90.434 285.615C96.4912 291.549 107.3 298.653 121.666 302.624C128.92 321.692 139.518 337.961 151.926 350.139C165.155 384.888 211.154 410.527 265.871 410.527C320.589 410.527 364.104 386.246 378.677 352.924C394.037 338.963 406.913 318.851 414.592 294.889C429.24 290.952 440.254 283.739 446.39 277.727C463.065 261.394 438.588 243.114 421.771 242.326Z" fill="white"/>
</mask>
<g mask="url(#mask0_153_5708)">
<path d="M237.8 172.247C237.8 172.247 197.092 147.985 121.737 191.657L142.359 143.129L192.1 139.894L237.796 172.244L237.8 172.247Z" fill="#F4C7A4"/>
<path d="M321.763 121.456C431.743 146.686 418.817 225.182 418.817 225.182L467.159 167.192L336.133 82.2676C336.133 82.2676 306.271 117.898 321.76 121.452L321.763 121.456Z" fill="#F4C7A4"/>
</g>
<path d="M180.4 246.677C194.511 243.717 214.745 242.383 239.565 248.639C242.058 249.267 243.569 251.798 242.941 254.291C242.313 256.784 239.782 258.295 237.289 257.667C227.987 255.323 219.405 254.122 211.63 253.695C212.066 254.821 212.303 256.109 212.303 257.57H212.299C212.299 264.888 206.366 270.818 199.051 270.818C191.737 270.818 185.803 264.885 185.803 257.57C185.803 256.675 185.892 255.844 186.062 255.076C184.761 255.299 183.511 255.538 182.311 255.79C175.862 257.143 170.882 258.85 167.552 260.198C165.888 260.872 164.637 261.456 163.823 261.859C163.416 262.061 163.119 262.217 162.933 262.317C162.841 262.367 162.776 262.402 162.74 262.423C162.722 262.433 162.711 262.44 162.707 262.442L162.713 262.438C160.49 263.727 157.643 262.972 156.352 260.75C155.061 258.527 155.816 255.677 158.039 254.386L160.197 258.1C158.077 254.451 158.041 254.385 158.043 254.383C158.044 254.382 158.047 254.381 158.049 254.38C158.052 254.378 158.056 254.375 158.06 254.373C158.069 254.368 158.08 254.362 158.092 254.354C158.118 254.34 158.15 254.321 158.19 254.299C158.27 254.254 158.379 254.194 158.517 254.12C158.794 253.971 159.186 253.766 159.691 253.516C160.701 253.015 162.165 252.335 164.058 251.568C167.844 250.036 173.353 248.155 180.4 246.677ZM323.433 243.317C336.134 241.888 354.007 242.222 374.95 249.134C377.391 249.94 378.717 252.572 377.912 255.014C377.106 257.455 374.473 258.781 372.032 257.976C360.824 254.277 350.604 252.616 341.745 252.118C342.356 253.327 342.694 254.763 342.694 256.448H342.69C342.69 263.256 337.174 268.772 330.366 268.772C323.558 268.772 318.041 263.256 318.041 256.448C318.041 255.342 318.187 254.342 318.461 253.444C315.461 253.984 312.977 254.595 311.066 255.135C309.532 255.568 308.37 255.958 307.611 256.229C307.232 256.365 306.953 256.473 306.78 256.541C306.694 256.575 306.633 256.599 306.599 256.613C306.583 256.62 306.573 256.624 306.569 256.626L306.575 256.623L306.574 256.622C304.212 257.632 301.478 256.538 300.466 254.177C299.453 251.814 300.548 249.076 302.911 248.063L304.663 252.15C302.927 248.1 302.913 248.063 302.915 248.062C302.916 248.061 302.918 248.06 302.92 248.06C302.923 248.058 302.927 248.056 302.931 248.055C302.94 248.051 302.951 248.047 302.963 248.042C302.987 248.032 303.018 248.018 303.055 248.003C303.131 247.972 303.236 247.929 303.366 247.878C303.627 247.775 303.996 247.634 304.469 247.465C305.416 247.125 306.782 246.671 308.533 246.176C312.035 245.186 317.088 244.031 323.433 243.317Z" fill="black"/>
<path d="M208.223 324.563C208.223 324.563 208.253 324.563 208.253 324.567L208.216 324.59L208.137 324.631L207.942 324.74C206.67 325.517 205.679 326.702 204.827 327.911C202.192 331.874 200.916 336.644 199.963 341.26C199.479 343.485 197.28 344.9 195.054 344.416C192.829 343.932 191.414 341.733 191.898 339.507C191.966 339.188 192.082 338.866 192.217 338.584C192.941 337.045 193.981 334.959 194.814 333.506C196.623 330.365 198.758 327.314 201.453 324.864C202.399 324.034 203.438 323.242 204.534 322.623C205.596 322.071 206.508 321.644 207.758 321.471C209.807 321.231 210.254 324.188 208.219 324.56L208.223 324.563Z" fill="#D1AD93"/>
<path d="M311.95 324.571C318.799 324.957 325.134 329.037 328.804 334.79C329.296 335.496 329.87 336.637 330.305 337.383C331.42 339.376 330.707 341.894 328.714 343.009C326.342 344.386 323.197 342.938 322.649 340.266L322.375 339.241C322.293 338.941 322.199 338.498 322.079 338.216C320.529 333.394 316.618 329.405 311.796 327.746C311.589 327.682 311.421 327.603 311.244 327.524C309.664 326.834 310.242 324.47 311.946 324.567L311.95 324.571Z" fill="#D1AD93"/>
<path d="M260.507 280.971C262.681 279.598 265.556 280.246 266.929 282.42C268.302 284.593 267.654 287.466 265.483 288.84L265.482 288.841C265.466 288.851 265.436 288.871 265.391 288.901C265.301 288.962 265.155 289.062 264.966 289.198C264.587 289.472 264.045 289.885 263.434 290.414C262.173 291.505 260.801 292.931 259.879 294.497C258.972 296.039 258.679 297.393 258.931 298.632C259.181 299.859 260.144 301.853 263.559 304.316C265.644 305.821 266.115 308.73 264.611 310.815C263.106 312.901 260.197 313.371 258.112 311.867C253.463 308.514 250.664 304.701 249.807 300.49C248.952 296.291 250.207 292.576 251.855 289.775C253.488 287 255.68 284.811 257.343 283.372C258.194 282.636 258.954 282.055 259.512 281.652C259.792 281.45 260.024 281.29 260.194 281.176C260.278 281.119 260.348 281.073 260.401 281.039C260.427 281.022 260.449 281.007 260.467 280.996C260.476 280.99 260.484 280.985 260.491 280.98C260.494 280.979 260.497 280.977 260.499 280.976C260.501 280.975 260.502 280.973 260.503 280.973C260.505 280.972 260.507 280.97 262.797 284.596L260.507 280.971ZM265.486 288.839H265.484C265.485 288.838 265.487 288.838 265.488 288.837L265.486 288.839Z" fill="black"/>
<path d="M259.908 236.773C264.945 235.79 271.843 235.907 279.562 239.883C281.848 241.061 282.746 243.868 281.569 246.154C280.391 248.44 277.584 249.338 275.298 248.161C269.673 245.262 264.944 245.277 261.691 245.912C260.035 246.235 258.728 246.727 257.864 247.121C257.433 247.317 257.119 247.486 256.932 247.592C256.839 247.645 256.778 247.683 256.752 247.699C256.745 247.703 256.741 247.705 256.739 247.707C256.741 247.705 256.745 247.702 256.752 247.698C256.755 247.696 256.759 247.694 256.763 247.691C256.765 247.69 256.768 247.688 256.77 247.686C256.771 247.685 256.773 247.684 256.774 247.683L256.773 247.682C254.641 249.115 251.751 248.551 250.316 246.42C248.88 244.287 249.444 241.394 251.577 239.958L253.947 243.476C251.604 239.997 251.579 239.957 251.581 239.955C251.581 239.954 251.584 239.953 251.586 239.952C251.589 239.95 251.592 239.947 251.595 239.945C251.602 239.941 251.61 239.936 251.618 239.93C251.634 239.92 251.652 239.908 251.673 239.894C251.716 239.867 251.769 239.833 251.832 239.794C251.957 239.716 252.123 239.616 252.327 239.5C252.734 239.268 253.297 238.969 254.003 238.647C255.414 238.005 257.419 237.259 259.908 236.773Z" fill="black"/>
<path d="M186.861 194.711C209.755 194.711 228.194 199.078 240.508 208.085C253.167 217.344 258.799 231.111 256.588 248.091V248.092C254.544 263.769 248.784 279.108 237.256 290.552C225.646 302.077 208.68 309.163 185.244 309.163C137.926 309.163 112.247 279.151 106.265 248.378C104.575 239.681 105.936 231.723 109.835 224.787C113.69 217.929 119.872 212.331 127.447 207.933C142.536 199.173 163.926 194.711 186.861 194.711ZM186.861 204.021C164.904 204.021 145.309 208.329 132.122 215.985C125.559 219.795 120.78 224.317 117.952 229.349C115.167 234.304 114.123 240.007 115.405 246.601C120.614 273.398 142.777 299.852 185.244 299.852C206.7 299.852 221.143 293.429 230.696 283.945C240.33 274.381 245.487 261.21 247.354 246.887C249.166 232.974 244.689 222.679 235.011 215.6C224.988 208.268 208.86 204.021 186.861 204.021Z" fill="black"/>
<path d="M344.991 194.711C367.926 194.711 389.316 199.173 404.405 207.933C411.98 212.331 418.162 217.929 422.017 224.787C425.916 231.723 427.277 239.681 425.587 248.378C419.605 279.151 393.926 309.163 346.608 309.163C323.172 309.163 306.206 302.077 294.596 290.552C283.068 279.108 277.308 263.769 275.264 248.092V248.091C273.053 231.111 278.685 217.344 291.344 208.085C303.658 199.078 322.097 194.711 344.991 194.711ZM344.991 204.021C322.992 204.021 306.865 208.268 296.841 215.6C287.163 222.679 282.686 232.974 284.498 246.887L284.682 248.227C286.691 262.03 291.823 274.68 301.156 283.945C310.709 293.429 325.152 299.852 346.608 299.852C389.075 299.852 411.238 273.398 416.447 246.601C417.729 240.007 416.685 234.304 413.9 229.349C411.072 224.317 406.293 219.795 399.73 215.985C386.543 208.329 366.948 204.021 344.991 204.021Z" fill="black"/>
<path d="M257.135 175.599C325.407 175.599 380.752 136.29 380.752 87.7994C380.752 39.3091 325.407 0 257.135 0C188.863 0 133.518 39.3091 133.518 87.7994C133.518 136.29 188.863 175.599 257.135 175.599Z" fill="#3F2B23"/>
<path d="M214.438 401.836C214.438 401.836 264.112 458.52 266.806 482.512C266.806 482.512 298.35 405.476 324.432 393.951L214.438 401.836Z" fill="#FFD8B5"/>
<path d="M228.127 348.707C249.396 335.44 277.843 334.758 299.721 346.995C300.997 347.709 301.453 349.322 300.74 350.599C300.026 351.875 298.412 352.331 297.136 351.617C276.944 340.323 250.561 340.955 230.93 353.2C229.69 353.974 228.057 353.596 227.283 352.355C226.509 351.115 226.887 349.481 228.127 348.707Z" fill="black"/>
<path d="M450.492 554.148C453.036 559.8 460.82 571.22 465.185 572.233C485.953 570.961 506.722 570.679 517.32 571.952C526.109 573.006 534.276 574.92 539.08 577.037C492.314 571.527 442.438 577.603 401.344 596.672C425.603 615.189 446.09 642.42 445.906 674.297C489.654 674.309 519.895 675.543 562.603 664.42C576.166 660.888 582.313 653.258 587.188 646.263C586.066 648.072 582.715 657.338 575.603 662.723C563.241 672.083 531.664 674.658 517.958 676.144C491.504 679.011 457.337 681.143 430.684 679.698C425.175 679.397 417.005 676.587 413.334 676.778C413.334 676.778 399.557 649.438 391.083 637.147C384.85 628.106 368.089 608.325 368.089 608.325C368.806 608.077 377.412 600.282 381.157 597.925C401.854 584.88 431.326 579.484 454.857 573.487C454.857 573.487 443.613 538.847 450.496 554.144L450.492 554.148Z" fill="#3D3DC1"/>
</g>
<defs>
<clipPath id="clip0_153_5708">
<rect width="594" height="707.923" fill="white"/>
</clipPath>
</defs>
</svg>
