<svg width="719" height="694" viewBox="0 0 719 694" fill="none" xmlns="http://www.w3.org/2000/svg">
<g clip-path="url(#clip0_372_352)">
<path d="M289.118 398.011C289.118 398.011 341.688 457.998 344.543 483.394C344.543 483.394 377.927 401.865 405.529 389.665L289.118 398.011Z" fill="#FFD8B5"/>
<path d="M153.458 409.697C182.824 384.122 231.248 364.698 236.232 362.301L237.898 362.055L245.316 368.884L245.193 370.576L246.166 372.015C240.862 423.224 257.039 480.173 283.303 523.547C299.19 502.255 318.111 481.15 342.895 470.877C343.805 471.626 344.685 471.574 345.527 470.72C371.899 477.952 394.786 498.654 410.021 521.299C436.896 475.507 454.934 421.957 445.268 368.825L449.533 363.353L453.428 357.776C471.577 361.753 493.264 369.223 509.542 378.509C540.906 396.401 559.64 439.972 559.64 439.972L516.222 466.434C504.283 491.192 503.478 526.011 503.108 554.232C502.557 596.047 504.052 645.769 530.085 680.237L530.707 682.977C527.602 682.221 525.627 684.099 522.823 684.405L177.613 684.356L178.262 681.747C204.951 648.71 206.781 598.977 207.072 557.941" fill="#7777FE"/>
<path d="M447.952 362.301C453.316 380.13 451.874 400.128 449.216 418.393C443.912 454.852 429.978 491.785 410.699 522.984C410.271 523.338 409.726 523.062 409.275 522.559C408.224 521.381 406.729 518.459 405.47 516.856C393.545 501.689 378.803 486.961 361.306 478.265C358.361 476.8 346.806 471.812 344.208 471.98C342.5 472.088 334.605 476.45 332.574 477.612C317.91 485.999 305.605 498.058 294.874 510.944C291.333 515.197 288.037 520.747 284.504 524.71C284.068 525.198 283.777 525.903 283.128 525.422C281.596 524.292 275.781 513.714 274.499 511.283C254.952 474.276 240.72 419.649 243.833 377.83C243.985 375.758 244.463 372.511 245.204 370.584C254.299 378.039 265.255 383.798 276.24 387.824C282.454 388.703 288.679 389.781 294.911 391.052L296.242 392.651C297.677 394.09 299.097 395.588 300.085 397.377C313.444 421.535 326.945 445.463 343.212 467.843C343.149 471.798 344.2 471.022 346.366 465.52C362.208 442.529 377.327 419.027 391.283 394.88L393.482 392.655L394.157 391.108C400.549 389.139 406.99 387.358 413.48 385.759C424.965 380.745 439.293 371.367 447.963 362.312L447.952 362.301Z" fill="#FEFEFE"/>
<path d="M103.641 494.185L104.811 493.052C132.022 489.637 155.591 477.627 178.996 463.552L182.955 462.11C199.788 490.938 213.055 522.943 222.467 555.026C235.577 599.723 247.322 660.85 198.968 686.973C161.033 703.609 127.031 685.493 112.251 648.523C97.5013 611.621 99.2532 534.603 103.641 494.185Z" fill="#7778FE"/>
<path d="M72.3479 390.347L74.1148 389.572C85.2675 394.63 96.7893 397.929 108.68 399.468L109.951 400.848L110.223 399.927C118.782 399.666 118.931 395.107 110.678 386.247C106.35 379.828 104.561 364.582 112.158 359.874C115.587 357.75 121.604 359.953 120.687 363.893C122.301 364.75 123.519 365.727 124.347 366.823L129.864 377.823C133.159 389.46 143.175 398.697 152.982 405.775C165.734 415.213 170.691 430.034 170.833 445.421L169.514 447.382C169.077 447.99 168.623 448.579 168.101 449.1C167.59 449.611 167.087 450.099 166.494 450.405C150.511 458.68 134.982 465.662 118.178 471.969C116.109 472.744 111.483 474.023 109.798 472.852C99.9466 468.558 88.8199 467.388 78.3828 464.659C52.9797 458.02 34.1072 449.313 16.3939 429.113C12.6813 424.879 5.96429 417.178 5.96802 411.639C9.96766 404.266 20.6806 408.295 26.1377 412.146C36.8767 420.454 47.6791 428.681 61.5567 430.929L63.0365 432.699C67.5729 425.263 72.6797 417.159 78.0995 409.63C87.5227 400.43 87.5674 399.043 78.23 405.47C70.1859 406.428 41.2603 384.126 35.7547 379.858L26.9503 374.505C21.3963 367.169 35.956 369.547 39.9557 371.329C50.2623 376.794 60.5056 382.396 70.6854 388.14L72.3442 390.343L72.3479 390.347Z" fill="#FFD8B5"/>
<path d="M174.464 444.844C175.112 444.657 175.187 444.299 175.959 444.754C177.23 445.507 183.231 453.35 184.469 455.132C193.91 468.689 202.476 487.062 208.724 502.419C224.234 540.537 251.367 615.669 232.103 655.058C225.792 667.959 212.272 681.139 198.969 686.973L209.327 678.616C218.288 670.911 224.912 661.704 228.521 650.432C243.412 603.924 212.932 524.244 192.419 481.974C189.337 475.618 185.702 469.498 182.62 463.15C165.357 472.457 148.949 483.185 129.991 489C121.395 491.635 112.456 492.646 103.648 494.181C103.943 491.456 105.609 476.431 106.228 475.216C107.167 473.363 108.207 473.564 109.81 472.845C113.004 471.417 115.882 471.32 118.775 470.336C136.92 464.156 152.479 455.698 169.525 447.378C169.719 445.179 172.95 442.782 174.471 444.84L174.464 444.844Z" fill="#3C3EC0"/>
<path d="M4.27961 374.818C23.9312 369.883 38.5356 388.506 53.5091 397.903C58.9513 401.317 65.5081 404.262 71.3901 406.89C72.9818 407.602 75.1475 406.905 74.5585 409.395C74.4579 409.816 69.3586 415.62 68.8032 415.825C65.5752 417.021 50.2215 408.694 46.8145 406.51C36.3699 399.808 21.4859 383.723 8.91667 383.91C7.94751 383.925 5.81163 384.633 5.66253 384.562C5.35314 384.417 3.46701 379.045 3.28064 378.121C2.8557 376.022 3.66084 376.141 4.27961 374.822V374.818Z" fill="#FFD8B5"/>
<path d="M0.525887 388.666C2.61331 387.32 1.12975 390.12 2.90405 389.896C5.00638 389.628 6.43403 388.327 9.01348 388.342C18.5261 388.409 36.9923 406.647 45.8154 412.131C52.0963 416.037 58.9475 418.549 65.8994 420.965C64.1884 423.38 64.3375 428.114 60.7218 427.518C56.9085 426.892 50.4375 424.23 46.9635 422.378C36.3437 416.719 23.0998 401.209 10.4672 404.847C8.64073 405.373 8.719 407.464 6.67632 405.503C3.42963 402.387 -1.64354 392.941 0.529614 388.658L0.525887 388.666Z" fill="#FFD8B5"/>
<path d="M162.062 408.493C158.465 404.515 154.078 401.977 150.249 398.622C148.893 397.433 147.167 396.125 146.004 395.033C142.615 391.846 140.051 388.077 137.624 384.141C136.394 382.143 135.16 380.16 133.964 378.136C133.077 376.637 132.462 374.949 131.425 373.189C129.457 369.849 127.556 365.484 125.226 362.238C120.522 355.677 115.464 353.668 108.635 359.092C101.996 364.366 102.645 375.881 104.993 383.213C106.44 387.73 110.842 391.79 113.302 395.95C113.209 396.136 109.839 396.699 109.183 396.725C101.426 397.008 83.2358 390.038 75.5273 386.985C73.1118 386.027 69.7086 385.24 67.4721 384.092C58.4403 379.455 38.4905 362.562 28.5902 365.924C25.884 366.841 22.2422 371.199 21.8135 371.277C21.4184 371.348 16.0992 369.529 13.9969 369.533C8.90135 369.54 6.44864 370.17 4.27548 374.818L6.13552 375.821C15.6556 373.965 24.5421 378.248 32.1313 383.664C44.5217 394.57 58.2427 402.983 73.2945 408.906C73.1976 409.276 68.5941 414.461 68.2437 414.606C63.122 416.712 33.1788 395.782 29.4736 391.518C22.7603 386.746 14.9325 381.386 6.35917 382.866C5.84105 379.962 4.81598 378.382 3.27278 378.125C2.14334 379.712 5.30428 384.074 4.95017 384.823C4.82343 385.095 1.84513 386.053 0.514404 388.673C1.30837 391.57 3.7499 391.954 7.83528 389.833C13.7807 390.414 19.3049 392.975 24.4116 397.508C36.1757 408.116 49.278 416.358 63.7184 422.232C63.6066 430.809 48.4095 421.793 44.7006 419.437L27.5688 407.311C21.2507 403.509 13.1209 400.624 6.66856 405.514C7.62654 407.818 5.97151 408.959 5.96778 411.642C17.7803 402.969 29.7681 417.629 39.3926 423.612C44.3688 426.702 48.9201 428.685 54.4108 430.638C55.7974 431.13 60.6395 431.95 60.975 432.148C61.8547 432.673 61.7317 434.448 63.6774 433.952C65.7462 433.426 66.5625 429.486 67.6063 427.675C70.9722 421.826 74.7072 416.179 78.8783 410.867C80.8315 408.377 84.3988 405.377 86.0091 402.89C86.6428 401.914 86.9372 401.474 86.2626 400.329C84.8461 398.317 80.4364 403.934 78.0881 404.113C74.9607 404.351 58.3396 394.801 54.9252 392.535C48.1597 388.043 42.0876 382.486 35.3706 377.92C34.0771 377.04 27.0954 373.286 27.0209 372.768C26.4245 368.597 37.5922 371.866 39.4522 372.615C50.4 377.032 59.9797 385.348 72.3477 390.351C82.2815 394.369 99.5475 401.112 109.951 400.851C111.964 400.799 112.598 401.608 115.192 400.37C123.091 396.602 113.954 389.721 111.625 385.114C109.962 381.822 108.318 377.07 108.173 373.405C107.875 365.902 113.291 354.384 120.686 363.9C127.075 372.123 129.919 384.439 137.222 393.68C143.085 401.101 151.752 405.436 158.1 412.384C167.232 422.374 169.196 434.306 169.513 447.39C171.228 446.555 172.544 445.395 174.46 444.851C174.46 430.962 171.537 418.978 162.058 408.5L162.062 408.493ZM132.6 376.086L131.422 373.193C132.104 374.613 132.465 375.504 132.6 376.086Z" fill="#F4C7A4"/>
<path d="M82.5278 428.696C98.2096 420.92 128.865 412.928 140.931 430.787C141.963 432.312 144.233 437.34 140.771 436.993C139.429 436.859 133.125 430.962 130.736 429.587C122.349 424.756 112.184 424.633 102.936 426.914C98.504 428.006 80.2168 436.33 77.8274 434.641C74.7895 432.491 80.7908 429.557 82.5241 428.696H82.5278Z" fill="#F4C7A4"/>
<path d="M598.377 506.497L597.43 505.17C571.282 496.91 550.262 480.848 529.772 462.784L526.141 460.652C504.387 485.973 485.571 515.063 470.534 544.928C449.581 586.531 427.019 644.539 469.874 678.951C504.194 702.151 540.902 690.458 562.101 656.758C583.258 623.117 595.414 547.041 598.381 506.497H598.377Z" fill="#7778FE"/>
<path d="M647.867 409.999L646.268 408.918C634.388 411.885 622.46 413.055 610.484 412.422L608.985 413.551L608.881 412.597C600.513 410.796 601.183 406.286 610.901 399.058C616.314 393.523 620.82 378.851 614.196 372.85C611.207 370.144 604.892 371.225 605.082 375.266C603.342 375.817 601.966 376.559 600.956 377.487L593.546 387.313C588.208 398.167 576.69 405.447 565.772 410.644C551.529 417.629 543.981 431.316 541.07 446.424L542.013 448.59C542.333 449.264 542.676 449.924 543.094 450.532C543.504 451.125 543.91 451.695 544.439 452.105C558.671 463.123 572.687 472.789 588.077 482.022C589.975 483.159 594.295 485.25 596.159 484.4C606.622 481.951 617.778 482.805 628.536 482.003C654.718 480.05 674.851 474.888 695.915 458.211C700.328 454.714 708.324 448.347 709.319 442.902C706.714 434.928 695.449 436.964 689.388 439.767C677.326 446.003 665.223 452.15 651.166 451.859L649.392 453.335C646.268 445.201 642.704 436.311 638.735 427.928C631.123 417.182 631.328 415.81 639.357 423.813C647.099 426.202 679.57 409.481 685.75 406.275L695.375 402.596C702.159 396.382 687.409 396.099 683.152 397.127C672.029 400.643 660.943 404.31 649.899 408.127L647.871 409.995L647.867 409.999Z" fill="#FFD8B5"/>
<path d="M537.603 445.201C536.995 444.903 536.992 444.534 536.149 444.844C534.763 445.358 527.449 451.989 525.906 453.518C514.175 465.151 502.441 481.679 493.529 495.661C471.406 530.361 431.174 599.372 443.028 641.59C446.908 655.416 457.834 670.818 469.87 678.955L461.189 668.868C453.763 659.676 448.906 649.422 447.389 637.688C441.123 589.256 485.462 516.375 513.255 478.492C517.433 472.796 522.108 467.432 526.286 461.744C541.588 474.012 555.797 487.52 573.395 496.656C581.375 500.798 589.986 503.403 598.373 506.497C598.574 503.761 599.644 488.683 599.256 487.375C598.664 485.381 597.609 485.392 596.159 484.4C593.274 482.421 590.459 481.806 587.79 480.319C571.058 470.97 557.273 459.847 542.009 448.59C542.214 446.391 539.47 443.45 537.603 445.201Z" fill="#3C3EC0"/>
<path d="M717.625 406.987C699.185 398.593 681.464 414.278 665.04 420.824C659.073 423.202 652.095 424.916 645.832 426.441C644.136 426.855 642.131 425.781 642.265 428.334C642.288 428.767 646.257 435.394 646.768 435.696C649.728 437.456 666.334 432.028 670.073 430.496C681.553 425.785 699.091 412.649 711.422 415.094C712.373 415.284 714.344 416.365 714.505 416.324C714.836 416.235 717.658 411.292 718.009 410.416C718.803 408.429 717.99 408.403 717.621 406.991L717.625 406.987Z" fill="#FFD8B5"/>
<path d="M718.821 421.286C717.009 419.586 717.964 422.609 716.26 422.068C714.24 421.427 713.069 419.888 710.531 419.44C701.16 417.793 679.712 432.405 670.046 436.211C663.162 438.921 655.975 440.158 648.699 441.284C649.947 443.971 648.945 448.597 652.609 448.664C656.474 448.735 663.318 447.285 667.068 446.089C678.534 442.436 694.354 429.568 706.125 435.42C707.825 436.267 707.37 438.309 709.733 436.751C713.491 434.269 720.178 425.893 718.817 421.289L718.821 421.286Z" fill="#FFD8B5"/>
<path d="M715.153 416.697C714.941 415.896 718.836 412.179 718.012 410.412C716.45 410.386 715.153 411.758 714.124 414.52C705.957 411.523 697.295 415.385 689.832 418.866C685.419 422.393 652.195 437.586 647.536 434.589C647.215 434.384 643.622 428.454 643.596 428.073C659.468 424.961 674.482 419.157 688.636 410.662C697.075 406.704 706.591 404.094 715.619 407.632L717.628 406.983C716.331 402.018 714.031 400.956 709.021 400.031C706.956 399.651 701.395 400.482 701.018 400.341C700.608 400.188 697.813 395.245 695.319 393.855C686.187 388.767 663.519 401.787 653.798 404.72C651.394 405.447 647.905 405.608 645.355 406.115C637.222 407.729 618.073 411.307 610.495 409.63C609.854 409.488 606.641 408.329 606.581 408.127C609.75 404.478 614.812 401.28 617.048 397.098C620.679 390.31 623.393 379.097 617.812 372.716C612.072 366.148 606.738 367.218 600.927 372.82C598.049 375.597 595.395 379.545 592.857 382.475L591.179 385.11C591.414 384.562 591.928 383.749 592.857 382.475C591.522 384.018 590.613 385.568 589.468 386.881C587.925 388.655 586.356 390.384 584.786 392.129C581.693 395.562 578.491 398.805 574.58 401.332C573.239 402.197 571.308 403.17 569.757 404.098C565.388 406.711 560.617 408.414 556.36 411.68C545.148 420.279 540.116 431.54 537.611 445.201C539.396 446.081 540.485 447.46 542.017 448.59C544.686 435.775 548.767 424.394 559.551 416.212C567.051 410.524 576.351 407.822 583.459 401.578C592.305 393.806 597.322 382.202 605.09 375.266C614.081 367.236 617.332 379.541 615.688 386.873C614.886 390.451 612.411 394.831 610.182 397.769C607.062 401.88 596.834 407.005 603.924 412.135C606.253 413.819 607.021 413.141 608.993 413.555C619.177 415.687 637.378 412.164 647.875 410.002C660.94 407.311 671.862 400.859 683.424 398.484C685.385 398.082 696.963 396.878 695.625 400.874C695.457 401.369 687.916 403.807 686.485 404.437C679.052 407.717 672.082 412.09 664.615 415.288C660.847 416.902 642.779 423.302 639.745 422.505C637.468 421.904 634.146 415.586 632.387 417.308C631.515 418.315 631.727 418.799 632.175 419.873C633.311 422.609 636.279 426.202 637.755 429.005C640.897 434.981 643.555 441.213 645.814 447.568C646.511 449.537 646.608 453.559 648.546 454.45C650.369 455.288 650.566 453.518 651.528 453.16C651.897 453.022 656.802 453.093 658.256 452.858C664.011 451.926 668.842 450.793 674.292 448.649C684.837 444.501 699.27 432.241 709.327 442.902C709.808 440.259 708.388 438.839 709.745 436.747C704.28 430.776 695.763 432.148 688.859 434.749L669.823 443.587C665.748 445.235 649.176 451.367 650.611 442.909C665.875 439.733 680.245 433.989 693.727 425.673C699.565 422.132 705.462 420.611 711.415 421.11C715.049 423.932 717.52 423.992 718.821 421.289C717.986 418.471 715.231 416.992 715.153 416.701V416.697Z" fill="#F4C7A4"/>
<path d="M630.948 445.884C616.925 435.409 588.208 422.024 573.127 437.415C571.837 438.73 568.699 443.267 572.165 443.546C573.511 443.655 580.772 438.991 583.37 438.071C592.491 434.831 602.511 436.542 611.196 440.453C615.36 442.328 631.847 453.808 634.501 452.578C637.878 451.013 632.503 447.043 630.952 445.884H630.948Z" fill="#F4C7A4"/>
<path d="M486.648 256.402C537.392 256.402 578.528 217.359 578.528 169.196C578.528 121.034 537.392 81.9907 486.648 81.9907C435.904 81.9907 394.768 121.034 394.768 169.196C394.768 217.359 435.904 256.402 486.648 256.402Z" fill="#3F2B23"/>
<path d="M169.059 366.588C206.448 366.588 236.758 337.818 236.758 302.329C236.758 266.84 206.448 238.07 169.059 238.07C131.669 238.07 101.359 266.84 101.359 302.329C101.359 337.818 131.669 366.588 169.059 366.588Z" fill="#3F2B23"/>
<path d="M309.818 163.993C309.818 220.595 268.681 266.481 217.938 266.481C167.195 266.481 110.395 221.427 110.395 164.824C110.395 108.222 167.195 61.5044 217.938 61.5044C268.681 61.5044 309.818 107.39 309.818 163.993Z" fill="#3F2B23"/>
<path d="M602.023 292.104C602.023 340.268 574.443 374.49 523.7 374.49C472.957 374.49 423.083 306.373 423.083 258.21C423.083 210.047 433.192 211.817 483.935 211.817C534.678 211.817 602.019 243.941 602.019 292.101L602.023 292.104Z" fill="#3F2B23"/>
<path d="M499.892 240.687C499.523 233.027 498.513 225.642 496.895 218.664C499.422 211.504 500.79 203.881 500.79 195.979C500.79 154.275 462.848 120.466 416.041 120.466C378.702 120.466 347.003 141.982 335.709 171.858C320.653 159.646 300.64 152.199 278.674 152.199C233.69 152.199 196.899 183.428 194.1 222.88C192.512 231.114 191.74 239.852 191.852 248.902C175.511 251.694 155.326 268.535 170.795 283.684C176.812 289.577 187.547 296.633 201.816 300.577C209.021 319.517 219.548 335.675 231.871 347.771C245.01 382.284 290.699 407.751 345.046 407.751C399.394 407.751 442.614 383.634 457.088 350.537C472.345 336.671 485.134 316.695 492.761 292.895C507.31 288.984 518.25 281.82 524.344 275.849C540.906 259.626 516.595 241.469 499.892 240.687Z" fill="#FFD8B5"/>
<mask id="mask0_372_352" style="mask-type:luminance" maskUnits="userSpaceOnUse" x="165" y="120" width="365" height="288">
<path d="M499.892 240.687C499.523 233.027 498.513 225.642 496.895 218.664C499.422 211.504 500.79 203.881 500.79 195.979C500.79 154.275 462.848 120.466 416.041 120.466C378.702 120.466 347.003 141.982 335.709 171.858C320.653 159.646 300.64 152.199 278.674 152.199C233.69 152.199 196.899 183.428 194.1 222.88C192.512 231.114 191.74 239.852 191.852 248.902C175.511 251.694 155.326 268.535 170.795 283.684C176.812 289.577 187.547 296.633 201.816 300.577C209.021 319.517 219.548 335.675 231.871 347.771C245.01 382.284 290.699 407.751 345.046 407.751C399.394 407.751 442.614 383.634 457.088 350.537C472.345 336.671 485.134 316.695 492.761 292.895C507.31 288.984 518.25 281.82 524.344 275.849C540.906 259.626 516.595 241.469 499.892 240.687Z" fill="white"/>
</mask>
<g mask="url(#mask0_372_352)">
<path d="M317.164 171.083C317.164 171.083 276.731 146.984 201.886 190.361L222.369 142.161L271.773 138.948L317.16 171.079L317.164 171.083Z" fill="#F4C7A4"/>
<path d="M400.56 120.634C509.795 145.694 496.958 223.659 496.958 223.659L544.972 166.062L414.833 81.7112C414.833 81.7112 385.173 117.1 400.556 120.63L400.56 120.634Z" fill="#F4C7A4"/>
</g>
<path d="M287.788 322.368C287.788 322.368 287.818 322.368 287.818 322.372L287.781 322.394L287.703 322.435L287.509 322.543C286.42 323.214 285.507 324.191 284.758 325.223C281.899 329.186 280.602 334.106 279.61 338.829C279.189 341.095 276.964 342.583 274.708 342.087C272.498 341.606 271.093 339.422 271.574 337.211C271.667 336.57 272.848 334.375 273.12 333.752C275.096 329.931 277.407 326.178 280.527 323.177C281.597 322.13 282.82 321.19 284.12 320.445C285.175 319.897 286.081 319.472 287.322 319.3C289.358 319.062 289.801 321.999 287.781 322.368H287.788Z" fill="#D1AD93"/>
<path d="M390.813 322.376C397.616 322.76 403.908 326.812 407.554 332.526C408.042 333.23 408.612 334.36 409.045 335.102C410.152 337.081 409.443 339.582 407.464 340.689C405.108 342.057 401.985 340.618 401.44 337.964L401.168 336.95C401.086 336.652 400.993 336.212 400.874 335.933C399.334 331.139 395.45 327.181 390.66 325.533C390.455 325.47 390.288 325.391 390.112 325.317C388.543 324.631 389.117 322.283 390.81 322.379L390.813 322.376Z" fill="#D1AD93"/>
<path d="M348.014 280.72C348.014 280.72 329.853 292.194 345.87 303.749" stroke="black" stroke-width="9.24801" stroke-linecap="round" stroke-linejoin="round"/>
<path d="M333.432 242.17C333.432 242.17 343.273 235.543 356.528 242.372" stroke="black" stroke-width="9.24801" stroke-linecap="round" stroke-linejoin="round"/>
<path d="M331.24 245.816C327.356 275.614 309.553 302.448 264.964 302.448C220.376 302.448 196.616 274.406 191.058 245.816C185.154 215.44 221.982 198.018 266.571 198.018C311.16 198.018 335.236 215.131 331.24 245.816Z" stroke="black" stroke-width="9.24801" stroke-linecap="round" stroke-linejoin="round"/>
<path d="M358.962 245.816C362.846 275.614 380.649 302.448 425.237 302.448C469.826 302.448 493.585 274.406 499.143 245.816C505.048 215.44 468.22 198.018 423.631 198.018C379.042 198.018 354.966 215.131 358.962 245.816Z" stroke="black" stroke-width="9.24801" stroke-linecap="round" stroke-linejoin="round"/>
<path d="M336.369 174.411C404.179 174.411 459.15 135.368 459.15 87.2056C459.15 39.0433 404.179 0 336.369 0C268.559 0 213.588 39.0433 213.588 87.2056C213.588 135.368 268.559 174.411 336.369 174.411Z" fill="#3F2B23"/>
<path d="M377.305 341.49C354.813 333.29 328.038 338.281 310.008 354.03" stroke="black" stroke-width="5.25955" stroke-linecap="round" stroke-linejoin="round"/>
<path d="M388.099 233.81C388.099 233.81 398.074 250.397 411.717 254.576C424.033 258.348 447.684 255.884 455.057 228.885L388.099 233.813V233.81Z" fill="#EAEAEA"/>
<path d="M236.706 228.08C236.706 228.08 243.457 246.218 256.101 252.839C267.511 258.81 291.214 260.745 303.429 235.565L236.706 228.08Z" fill="#EAEAEA"/>
<path d="M387.004 235.42C387.004 235.42 413.44 220.032 454.924 228.293" stroke="black" stroke-width="9.24801" stroke-linecap="round" stroke-linejoin="round"/>
<path d="M433.27 229.437C433.933 234.853 430.083 239.785 424.667 240.452C419.251 241.115 414.319 237.265 413.652 231.849C412.985 226.433 417.115 223.697 422.531 223.033C427.947 222.37 432.603 224.025 433.266 229.441L433.27 229.437Z" fill="black"/>
<path d="M226.75 233.306C226.75 233.306 257.852 218.664 304.432 234.793" stroke="black" stroke-width="9.24801" stroke-linecap="round" stroke-linejoin="round"/>
<path d="M282.209 233.198C281.675 239.349 276.256 243.904 270.105 243.371C263.955 242.838 259.4 237.418 259.933 231.267C260.466 225.117 265.677 223.056 271.827 223.589C277.978 224.122 282.742 227.044 282.209 233.198Z" fill="black"/>
</g>
<defs>
<clipPath id="clip0_372_352">
<rect width="719" height="693.187" fill="white"/>
</clipPath>
</defs>
</svg>
