<svg width="24" height="24" viewBox="0 0 24 24" fill="none" xmlns="http://www.w3.org/2000/svg">
<path d="M7.77441 12.5274H4L5.20605 9.92096H7.77441V12.5274ZM20 12.5274H16.5801V9.92096H18.6543L20 12.5274Z" fill="black"/>
<path d="M19.9336 21.2384H4V12.8527H19.9336V21.2384ZM8.82129 16.4161V17.7189H15.2646V16.4161H8.82129Z" fill="black"/>
<path d="M13.7038 5.61145H16.197V12.5558H8.18428V3.297H13.7038V5.61145ZM9.43233 10.9523V11.4865H14.9519V10.9523H9.43233ZM9.43233 10.0519H14.9519V9.5177H9.43233V10.0519ZM9.43233 8.63H14.9519V8.09583H9.43233V8.63ZM9.43233 7.20715H14.9519V6.67297H9.43233V7.20715Z" fill="black"/>
<path d="M14.0165 5.3919L14.0165 3.31847L16.2073 5.39158L14.0165 5.3919Z" fill="black"/>
</svg>
